# xmcd CD database file generated by OrangeCD 5.2
#
# Track frame offsets:
#	150
#	19054
#	37280
#	52041
#	66879
#	93917
#	113168
#	127649
#	139085
#	150834
#	167346
#	180664
#	195361
#	208924
#
# Disc length: 2937 seconds
#
# Revision: 1
# Processed by: cddbd v1.5.1PL0 Copyright (c) Steve Scherf et al.
# Submitted via: OrangeCD 5.2
#
DISCID=b40b770e
DTITLE=Mike Sanchez - Just Can't Afford It
DYEAR=1999
DGENRE=Blues
TTITLE0=Just Can't Afford It
TTITLE1=Vamos a Bailar
TTITLE2=Three Months, Three Weeks, Three Days
TTITLE3=Cuttin' In
TTITLE4=Messed With An Angel
TTITLE5=Goodnight My Love
TTITLE6=Sombras
TTITLE7=Adam Come And Get Your Rib
TTITLE8=Brown Eyed Handsome Man
TTITLE9=Ramblin' Boogie
TTITLE10=Coalminer
TTITLE11=Wakin' Up Baby
TTITLE12=Wow, I Feel So Good
TTITLE13=Red Light Shack
EXTD=
EXTT0=
EXTT1=
EXTT2=
EXTT3=
EXTT4=
EXTT5=
EXTT6=
EXTT7=
EXTT8=
EXTT9=
EXTT10=
EXTT11=
EXTT12=
EXTT13=
PLAYORDER=
